<?xml version="1.0" encoding="UTF-8"?>
<!DOCTYPE svg PUBLIC "-//W3C//DTD SVG 1.0//EN" "http://www.w3.org/TR/2001/REC-SVG-20010904/DTD/svg10.dtd">
<!-- Creator: CorelDRAW 2019 (64-Bit) -->
<svg xmlns="http://www.w3.org/2000/svg" xml:space="preserve" width="90.2338mm" height="18.5416mm" version="1.0" style="shape-rendering:geometricPrecision; text-rendering:geometricPrecision; image-rendering:optimizeQuality; fill-rule:evenodd; clip-rule:evenodd"
viewBox="0 0 6483.16 1332.19"
 xmlns:xlink="http://www.w3.org/1999/xlink">
 <defs>
  <style type="text/css">
   <![CDATA[
    .fil1 {fill:#C9F31D}
    .fil0 {fill:white}
   ]]>
  </style>
 </defs>
 <g id="Layer_x0020_1">
  <metadata id="CorelCorpID_0Corel-Layer"/>
  <path class="fil0" d="M-0 751.68m0 -655.8l0 655.8 152.99 0 0 -209.88 212.69 0c155.79,0 236.02,-69.96 234.15,-204.29l0 -37.31c0,-135.26 -78.36,-204.29 -234.15,-204.29l-365.68 0 0 -0.02zm361.02 124.08c60.63,0 85.83,22.39 85.83,77.43l0 42.91c0,54.11 -24.25,77.43 -85.83,77.43l-208.03 0 0 -197.77 208.03 0z"/>
  <path class="fil0" d="M720.35 751.68m0 -655.8l0 655.8 152.99 0 0 -531.73 221.09 0c53.18,0 76.48,20.53 76.48,69.03l0 41.05c0,47.57 -21.46,69.96 -76.48,69.96l-133.4 0 0 70.89c0,35.46 3.74,48.52 17.73,65.3l156.72 189.37c15.85,20.51 31.72,26.11 59.71,26.11l159.51 0 -181.9 -214.55c-16.8,-20.53 -30.77,-27.98 -58.77,-27.98l0 -8.4 14.94 0c127.79,-3.74 197.77,-64.37 195.89,-183.77l0 -25.18c0,-131.53 -76.48,-195.89 -227.62,-195.89l-376.87 0 -0.02 0.01z"/>
  <path class="fil0" d="M1450.97 751.68m152.99 -655.8l-152.99 0 0 655.8 152.99 0 0 -655.8z"/>
  <path class="fil0" d="M1721.69 751.68m531.73 -531.73c27.98,0 41.05,-11.19 44.78,-37.31l13.06 -86.76 -381.53 0c-125,0 -192.16,55.04 -192.16,156.72l0 26.11c0,104.49 47.57,152.99 179.1,181.9l213.62 46.64c41.97,9.33 52.23,19.59 52.23,51.31l0 26.11c0,30.79 -14.94,42.92 -47.57,42.92l-356.35 0c-27.98,0 -41.05,11.19 -44.78,37.31l-12.12 86.76 421.65 0c125,0 192.16,-55.04 192.16,-155.79l0 -46.64c0,-104.49 -43.83,-149.25 -174.43,-177.24l-221.09 -48.52c-40.12,-9.33 -49.45,-18.66 -49.45,-49.45l0 -12.14c0,-29.86 13.06,-41.97 44.78,-41.97l318.11 0 -0.01 0.03z"/>
  <path class="fil0" d="M2452.3 751.68m0 0l148.32 0 0 -333.96 -20.53 -175.37 6.52 0c10.26,0 13.99,2.8 19.59,15.86l147.39 321.82c7.45,17.73 20.51,25.2 41.03,25.2l41.97 0c19.59,0 32.65,-7.47 41.05,-25.2l147.39 -321.82c5.6,-13.06 9.33,-15.86 18.66,-15.86l7.45 0 -21.46 175.37 0 333.96 148.32 0 0 -655.8 -128.73 0c-69.03,0 -97.94,16.8 -123.14,72.77l-80.22 180.05 -27.98 83.95 -5.6 0 -27.98 -83.95 -80.22 -180.05c-25.18,-55.97 -54.09,-72.77 -122.2,-72.77l-129.66 0 0 655.8 0.04 0z"/>
  <path class="fil0" d="M3262.2 751.68m0 0l130.61 0c26.11,0 44.78,-11.19 53.17,-31.72l51.31 -115.68c2.8,-6.52 6.52,-8.4 13.06,-8.4l265.85 0c6.52,0 10.27,1.88 13.06,8.4l50.37 115.68c8.4,20.51 27.06,31.72 53.18,31.72l130.6 0 -292.91 -625.94c-10.26,-22.39 -27.06,-31.72 -50.37,-31.72l-73.69 0c-24.25,0 -40.12,9.33 -50.37,31.72l-293.86 625.94 -0.01 0zm294.79 -270.54c-5.6,0 -7.47,-3.74 -5.6,-8.4l62.49 -140.85 26.11 -77.43 5.6 0 27.06 77.43 61.58 140.85c1.86,4.66 0,8.4 -5.6,8.4l-171.65 0z"/>
  <path class="fil0" d="M4107.56 751.68m151.11 0l0 -327.44 -15.85 -182.83 6.52 0c10.26,0 13.99,3.74 19.59,14.92l213.62 423.53c30.77,60.63 58.76,71.82 135.26,71.82l132.47 0 0 -655.8 -151.13 0 0 327.44 15.86 182.85 -6.52 0c-10.27,0 -13.06,-3.74 -19.59,-14.94l-213.62 -423.53c-30.79,-60.63 -59.71,-71.82 -135.28,-71.82l-132.45 0 0 655.8 151.11 0 -0.01 0z"/>
  <path class="fil0" d="M4901.62 751.68m0 -655.8l0 485.09c0,114.74 55.97,170.71 171.65,170.71l418.86 0 -13.06 -86.76c-3.74,-26.11 -16.8,-37.31 -44.78,-37.31l-315.3 0c-46.64,0 -63.42,-14.94 -63.42,-57.85l0 -94.23 324.63 0c27.06,0 40.12,-11.19 43.83,-37.31l11.19 -81.17 -379.67 0 0 -137.14 361.94 0c27.98,0 41.05,-11.19 44.78,-37.31l12.14 -86.76 -572.76 0 -0.03 0.03z"/>
  <path class="fil1" d="M5584.65 751.68m0 -181.91c0.93,122.2 72.77,190.3 220.16,190.3l167.91 0c149.25,0 220.16,-64.37 220.16,-185.63l0 -69.96c0,-121.27 -67.17,-185.63 -201.51,-185.63l-120.34 0c-64.37,0 -106.34,15.85 -128.74,53.18l-4.66 0 0 -77.43c0,-52.23 25.2,-74.63 84.9,-74.63l280.78 0c27.98,0 41.05,-11.19 44.78,-37.31l12.14 -86.76 -355.41 0c-147.39,0 -220.16,68.11 -220.16,190.3l0 283.59 -0.01 -0.01zm152.99 -53.18c0,-52.23 25.2,-75.56 84.9,-75.56l133.4 0c59.71,0 83.95,23.32 83.95,75.56l0 45.71c0,52.23 -24.25,75.56 -83.95,75.56l-133.4 0c-59.71,0 -84.9,-23.32 -84.9,-75.56l0 -45.71z"/>
  <path class="fil0" d="M1065.23 1327.01m0 -121.93l41.66 0 0 7.21c0,22.13 1.55,38.58 5.14,48.87 3.08,10.8 8.74,18.01 16.45,22.64 6.19,3.08 15.43,5.65 27.78,7.21 12.86,1.55 38.58,2.06 77.7,2.06 21.09,0 37.56,-1.54 49.4,-4.11 11.84,-3.08 20.58,-7.21 26.23,-13.37 3.08,-3.61 5.65,-9.27 7.21,-16.98 1.55,-8.23 2.06,-19.03 2.06,-32.93 0,-27.78 -2.57,-45.28 -8.23,-52.49 -5.65,-6.7 -16.98,-11.31 -33.44,-12.35l-115.26 -9.27c-34.48,-2.57 -58.65,-11.33 -71.51,-25.72 -13.37,-14.92 -20.07,-39.11 -20.07,-73.57 0,-22.13 2.06,-39.62 6.7,-52.49 4.12,-13.37 11.31,-24.19 21.09,-32.93 7.21,-6.7 18.01,-11.84 31.38,-14.41 13.9,-2.57 37.56,-4.12 72.04,-4.12l13.37 0c38.58,0 65.35,2.06 81.29,5.65 15.43,3.59 28.29,9.78 39.11,19.05 7.21,6.16 12.35,14.41 15.94,25.72 3.59,11.33 5.14,25.21 5.14,41.69 0,4.63 0,8.74 0,11.33 0,2.57 -0.51,4.63 -0.51,6.7l-41.69 0 0 -9.27c0,-13.88 -0.51,-24.17 -2.57,-31.38 -1.55,-7.21 -4.12,-12.86 -7.21,-16.47 -5.65,-5.14 -14.92,-8.74 -27.78,-10.8 -13.37,-2.06 -38.58,-3.08 -76.15,-3.08 -38.58,0 -62.77,4.12 -72.55,12.86 -9.78,8.76 -14.92,26.23 -14.92,52.49 0,21.09 3.08,36.01 9.78,44.26 6.16,8.23 19.03,12.86 37.05,14.41l117.83 9.78c30.87,2.57 52.49,11.33 64.84,25.72 12.35,13.9 18.52,38.07 18.52,71.51 0,24.7 -1.55,42.71 -4.63,55.06 -3.08,12.35 -8.74,22.64 -15.94,30.87 -9.27,10.29 -21.09,17.5 -36.52,21.62 -15.43,4.12 -43.22,6.16 -83.86,6.16l-18.53 0c-34.48,0 -58.65,-1.55 -73.06,-5.14 -14.41,-3.59 -26.23,-9.78 -36.01,-18.52 -9.27,-8.23 -15.94,-19.05 -20.58,-32.93 -4.63,-13.37 -6.7,-30.87 -6.7,-51.98l0 -18.52 0.01 -0.04z"/>
  <path class="fil0" d="M1577.09 1327.01m0 0l0 -374.06 41.69 0 0 374.06 -41.69 0z"/>
  <path class="fil0" d="M1844.06 1327.01m0 0l0 -374.06 63.79 0 202.73 333.93 0 -333.93 41.15 0 0 374.06 -63.79 0 -202.73 -334.44 0 334.44 -41.15 0z"/>
  <path class="fil0" d="M2363.13 1327.01m0 -250.57c0,-47.85 9.78,-80.78 29.85,-99.82 19.56,-19.05 54.55,-28.29 104.96,-28.29l47.34 0c46.3,0 80.27,7.72 101.88,23.66 22.13,15.43 32.93,40.13 32.93,73.08l0 15.94 -42.71 0 0 -4.63c0,-25.72 -6.7,-43.73 -19.56,-54.02 -12.86,-9.78 -38.07,-14.92 -75.12,-14.92l-32.93 0c-25.21,0 -43.73,1.55 -55.06,4.12 -11.31,3.08 -20.58,7.72 -28.8,14.41 -7.21,6.16 -12.35,14.41 -14.92,24.7 -3.08,10.29 -4.63,29.34 -4.63,56.08l0 106.5c0,26.76 1.55,45.28 4.63,56.08 2.57,10.29 7.72,18.52 14.92,24.7 8.23,6.7 17.5,11.31 28.29,14.41 10.8,2.57 29.34,4.12 55.58,4.12l32.93 0c24.19,0 40.64,-1.55 50.93,-3.59 9.78,-2.57 18.01,-7.21 25.21,-12.86 6.7,-5.65 11.84,-13.37 14.41,-23.66 2.57,-9.78 4.12,-26.76 4.12,-50.42l0 -23.15 -103.93 0 0 -38.07 146.65 0 0 62.77c0,47.85 -9.78,81.29 -29.85,99.82 -19.56,19.03 -54.55,28.29 -104.96,28.29l-47.34 0c-50.42,0 -85.41,-9.27 -104.96,-28.29 -20.07,-18.52 -29.85,-51.98 -29.85,-99.82l0 -127.09 -0.03 -0.05z"/>
  <path class="fil0" d="M2850.31 1327.01m91.58 -132.75l162.08 0 -74.61 -201.71 -13.37 0 -74.08 201.71 -0.02 0zm-91.58 132.75l138.41 -374.06 67.92 0 138.93 374.06 -42.7 0 -35.5 -95.7 -189.36 0 -34.99 95.7 -42.71 0z"/>
  <path class="fil0" d="M3380.7 1327.01m224.86 -232.06l0 -55.06c0,-18.01 -4.12,-30.87 -12.86,-37.56 -8.23,-6.7 -26.76,-9.78 -55.06,-9.78l-115.77 0 0 149.73 115.77 0c27.78,0 46.31,-3.61 55.06,-10.29 8.74,-6.7 12.86,-19.56 12.86,-37.05l0 0.01zm-224.86 232.06l0 -374.06 157.45 0c42.2,0 71,6.16 86.96,18.52 15.94,12.35 23.66,34.99 23.66,66.89l0 56.59c0,32.93 -7.72,55.57 -23.66,67.92 -15.43,12.86 -44.26,19.05 -86.96,19.05l-116.29 0 0 145.1 -41.15 0 0 0.01z"/>
  <path class="fil0" d="M3840.6 1327.01m169.79 -339.58l-23.15 0c-26.23,0 -44.77,1.55 -55.57,4.12 -10.8,3.08 -20.58,7.72 -28.29,14.41 -7.21,6.16 -12.35,14.92 -15.43,25.72 -3.08,10.8 -4.63,29.34 -4.63,55.57l0 105.99c0,26.25 1.55,44.77 4.63,55.06 3.08,10.8 8.23,19.05 15.43,25.72 7.72,6.7 17.5,11.31 28.29,14.41 10.8,2.57 29.34,4.12 55.57,4.12l23.15 0c26.25,0 44.77,-1.55 56.08,-4.12 10.8,-3.08 20.58,-7.72 28.29,-14.41 7.21,-6.19 12.35,-14.41 15.43,-25.21 2.57,-10.29 4.11,-28.82 4.11,-55.58l0 -106.5c0,-26.23 -1.54,-44.77 -4.63,-55.57 -3.08,-10.8 -8.23,-19.56 -15.43,-25.72 -7.72,-6.7 -16.98,-11.31 -27.78,-13.88 -10.8,-2.57 -29.85,-4.12 -56.08,-4.12l0.01 -0.01zm-169.79 89.01c0,-47.85 9.78,-80.78 29.85,-99.82 19.56,-19.05 54.55,-28.29 104.96,-28.29l47.34 0c50.93,0 85.94,9.27 105.48,27.78 19.56,18.52 29.34,51.98 29.34,100.34l0 127.09c0,47.85 -9.78,81.29 -29.85,99.82 -19.56,19.03 -54.55,28.29 -104.96,28.29l-47.34 0c-50.42,0 -85.41,-9.27 -104.96,-28.29 -20.07,-18.52 -29.85,-51.98 -29.85,-99.82l0 -127.09 -0.01 -0.01z"/>
  <path class="fil0" d="M4370.67 1327.01m160.53 -334.44l-119.38 0 0 149.73 119.38 0c31.38,0 51.44,-4.12 61.22,-11.84 9.78,-7.72 14.41,-21.09 14.41,-41.15l0 -43.73c0,-20.07 -4.63,-33.95 -13.9,-41.69 -9.27,-7.72 -29.85,-11.31 -61.73,-11.31l0 -0.01zm-160.53 334.44l0 -374.06 168.76 0c42.2,0 71,6.16 86.96,18.52 15.94,12.35 23.66,34.99 23.66,66.89l0 56.59c0,19.56 -4.12,34.99 -11.84,45.79 -8.23,11.31 -20.07,18.52 -36.52,21.09 18.01,4.12 30.36,11.84 37.56,23.15 7.21,10.8 10.8,28.29 10.8,51.98l0 90.05 -43.22 0 0 -77.18c0,-26.76 -4.12,-44.77 -12.86,-54.55 -8.23,-9.27 -24.7,-13.9 -49.38,-13.9l-132.75 0 0 145.61 -41.15 0 -0.02 0.04z"/>
  <path class="fil0" d="M4865.22 1327.01m0 0l0 -374.06 262.42 0 0 39.62 -221.24 0 0 122.46 215.08 0 0 38.07 -215.08 0 0 134.79 221.24 0 0 39.11 -262.42 0 0 0.01z"/>
  <polygon class="fil1" points="-0,1118.82 936.35,1118.82 936.35,1161.64 -0,1161.64 "/>
  <polygon class="fil1" points="5256.57,1118.82 6192.91,1118.82 6192.91,1161.64 5256.57,1161.64 "/>
  <path class="fil1" d="M6306.01 93.99m27.82 0l0 -78.1 -27.81 0 0 -15.89 74.55 0 0 15.89 -27.69 0 0 78.1 -19.03 0 -0.02 0zm58.8 0m0 0l0 -93.96 28.48 0 16.92 64.05 16.53 -64.05 28.6 0 0 93.96 -17.59 0 0 -74.03 -18.64 74.03 -18.24 0 -18.38 -74.03 -0.12 74.03 -17.59 0 0.02 0z"/>
 </g>
</svg>
