<svg width="342" height="71" viewBox="0 0 342 71" fill="none" xmlns="http://www.w3.org/2000/svg">
<g clip-path="url(#clip0_5_2)">
<path fill-rule="evenodd" clip-rule="evenodd" d="M0.000572205 5.04367V39.5414H8.04845V28.5008H19.2368C27.432 28.5008 31.6524 24.8207 31.554 17.7544V15.7917C31.554 8.6765 27.432 5.04525 19.2368 5.04525H0.000572205V5.0442L0.000572205 5.04367ZM18.9917 11.5708C22.181 11.5708 23.5067 12.7486 23.5067 15.6439V17.9011C23.5067 20.7475 22.231 21.9743 18.9917 21.9743H8.04845V11.5708H18.9917Z" fill="white"/>
<path fill-rule="evenodd" clip-rule="evenodd" d="M37.8938 5.04367V39.5414H45.9417V11.5702H57.5719C60.3694 11.5702 61.5951 12.6502 61.5951 15.2015V17.3609C61.5951 19.8633 60.4662 21.0411 57.5719 21.0411H50.5546V24.7702C50.5546 26.6355 50.7513 27.3225 51.4872 28.2052L59.7313 38.1668C60.5651 39.2457 61.3999 39.5403 62.8723 39.5403H71.2632L61.6945 28.2541C60.8108 27.1742 60.0759 26.7823 58.603 26.7823V26.3404H59.3889C66.1111 26.1436 69.7924 22.9543 69.6935 16.6734V15.3488C69.6935 8.42979 65.6703 5.0442 57.7198 5.0442H37.8949L37.8938 5.04472V5.04367Z" fill="white"/>
<path fill-rule="evenodd" clip-rule="evenodd" d="M84.3752 5.04367H76.3274V39.5414H84.3752V5.04367Z" fill="white"/>
<path fill-rule="evenodd" clip-rule="evenodd" d="M118.539 11.5702C120.011 11.5702 120.699 10.9816 120.895 9.60759L121.582 5.04367H101.512C94.9365 5.04367 91.4037 7.93899 91.4037 13.2878V14.6613C91.4037 20.1578 93.906 22.7091 100.825 24.2299L112.062 26.6834C114.27 27.1742 114.81 27.7139 114.81 29.3825V30.756C114.81 32.3756 114.024 33.0137 112.307 33.0137H93.562C92.0901 33.0137 91.4026 33.6024 91.2064 34.9764L90.5688 39.5403H112.749C119.325 39.5403 122.858 36.645 122.858 31.3451V28.8917C122.858 23.3951 120.552 21.0405 113.682 19.5682L102.052 17.0158C99.9413 16.525 99.4505 16.0342 99.4505 14.4145V13.7759C99.4505 12.2052 100.137 11.5681 101.806 11.5681H118.54L118.539 11.5697V11.5702Z" fill="white"/>
<path fill-rule="evenodd" clip-rule="evenodd" d="M129.001 39.5414H136.804V21.9737L135.724 12.7486H136.067C136.606 12.7486 136.802 12.8959 137.097 13.5829L144.85 30.5119C145.242 31.4446 145.929 31.8375 147.009 31.8375H149.216C150.247 31.8375 150.934 31.4446 151.376 30.5119L159.129 13.5829C159.424 12.8959 159.62 12.7486 160.111 12.7486H160.503L159.374 21.9737V39.5414H167.176V5.04367H160.404C156.773 5.04367 155.252 5.92742 153.927 8.87166L149.707 18.343L148.235 22.7591H147.94L146.468 18.343L142.249 8.87166C140.924 5.92742 139.403 5.04367 135.82 5.04367H129V39.5414H129.002H129.001Z" fill="white"/>
<path fill-rule="evenodd" clip-rule="evenodd" d="M171.605 39.5414H178.476C179.849 39.5414 180.831 38.9527 181.273 37.8728L183.972 31.7875C184.119 31.4446 184.315 31.3457 184.659 31.3457H198.644C198.987 31.3457 199.184 31.4446 199.331 31.7875L201.98 37.8728C202.422 38.9517 203.404 39.5414 204.778 39.5414H211.648L196.24 6.61442C195.7 5.43662 194.816 4.94582 193.59 4.94582H189.714C188.438 4.94582 187.603 5.43662 187.064 6.61442L171.606 39.5414H171.605ZM187.112 25.3099C186.818 25.3099 186.719 25.1131 186.818 24.868L190.105 17.4587L191.479 13.3856H191.773L193.197 17.4587L196.436 24.868C196.534 25.1131 196.436 25.3099 196.141 25.3099H187.112H187.112Z" fill="white"/>
<path fill-rule="evenodd" clip-rule="evenodd" d="M224.024 39.5414V22.3167L223.19 12.6991H223.533C224.072 12.6991 224.269 12.8959 224.563 13.484L235.8 35.7633C237.419 38.9527 238.892 39.5414 242.916 39.5414H249.884V5.04367H241.934V22.2683L242.768 31.8869H242.425C241.885 31.8869 241.738 31.6902 241.395 31.101L230.158 8.82169C228.538 5.63231 227.017 5.04367 223.041 5.04367H216.074V39.5414H224.023H224.022H224.024Z" fill="white"/>
<path fill-rule="evenodd" clip-rule="evenodd" d="M257.845 5.04367V30.5613C257.845 36.5971 260.79 39.5414 266.875 39.5414H288.908L288.221 34.9774C288.025 33.6039 287.338 33.0148 285.866 33.0148H269.28C266.826 33.0148 265.944 32.2289 265.944 29.9716V25.0148H283.02C284.444 25.0148 285.131 24.4261 285.326 23.0521L285.915 18.7822H265.943V11.5681H284.982C286.454 11.5681 287.141 10.9795 287.338 9.60549L287.976 5.04156H257.847L257.845 5.04314V5.04367Z" fill="white"/>
<path fill-rule="evenodd" clip-rule="evenodd" d="M293.775 29.9722C293.824 36.4004 297.603 39.9827 305.357 39.9827H314.189C322.041 39.9827 325.771 36.5966 325.771 30.2178V26.5377C325.771 20.1584 322.237 16.7728 315.17 16.7728H308.84C305.454 16.7728 303.246 17.6065 302.068 19.5703H301.823V15.4971C301.823 12.7496 303.148 11.5713 306.289 11.5713H321.059C322.531 11.5713 323.218 10.9827 323.415 9.60864L324.053 5.04472H305.357C297.604 5.04472 293.776 8.62758 293.776 15.0553V29.9732L293.775 29.9727V29.9722ZM301.823 27.1747C301.823 24.4272 303.149 23.1999 306.289 23.1999H313.307C316.448 23.1999 317.723 24.4267 317.723 27.1747V29.5792C317.723 32.3267 316.447 33.554 313.307 33.554H306.289C303.148 33.554 301.823 32.3272 301.823 29.5792V27.1747Z" fill="white"/>
<path fill-rule="evenodd" clip-rule="evenodd" d="M56.0359 63.392H58.2274V63.7713C58.2274 64.9354 58.3089 65.8007 58.4978 66.342C58.6598 66.9102 58.9575 67.2894 59.3631 67.533C59.6887 67.695 60.1748 67.8302 60.8244 67.9123C61.5009 67.9938 62.8539 68.0206 64.9118 68.0206C66.0212 68.0206 66.8876 67.9396 67.5104 67.8044C68.1332 67.6424 68.593 67.4251 68.8902 67.1011C69.0522 66.9112 69.1874 66.6135 69.2695 66.2079C69.351 65.775 69.3779 65.2068 69.3779 64.4756C69.3779 63.0143 69.2427 62.0937 68.9449 61.7145C68.6477 61.362 68.0517 61.1195 67.1858 61.0648L61.1227 60.5772C59.3089 60.442 58.0375 59.9812 57.361 59.2242C56.6577 58.4393 56.3052 57.1668 56.3052 55.3541C56.3052 54.19 56.4136 53.2699 56.6577 52.5929C56.8744 51.8896 57.2526 51.3204 57.7671 50.8607C58.1464 50.5082 58.7145 50.2378 59.4178 50.1027C60.149 49.9675 61.3936 49.8859 63.2074 49.8859H63.9107C65.9402 49.8859 67.3484 49.9943 68.1869 50.1831C68.9986 50.372 69.6751 50.6976 70.2442 51.1852C70.6235 51.5093 70.8939 51.9433 71.0827 52.5382C71.2716 53.1342 71.3531 53.8644 71.3531 54.7313C71.3531 54.9748 71.3531 55.191 71.3531 55.3273C71.3531 55.4625 71.3263 55.5708 71.3263 55.6797H69.1332V55.1921C69.1332 54.4619 69.1064 53.9207 68.9981 53.5414C68.9165 53.1621 68.7813 52.8649 68.6188 52.675C68.3216 52.4046 67.8339 52.2152 67.1574 52.1069C66.4541 51.9985 65.128 51.9448 63.1516 51.9448C61.1222 51.9448 59.8497 52.1616 59.3352 52.6213C58.8208 53.0821 58.5504 54.0011 58.5504 55.3825C58.5504 56.4919 58.7124 57.2768 59.0648 57.7108C59.3889 58.1437 60.0659 58.3873 61.0138 58.4688L67.2121 58.9833C68.836 59.1185 69.9733 59.5793 70.623 60.3362C71.2726 61.0674 71.5972 62.3389 71.5972 64.0979C71.5972 65.3973 71.5157 66.3447 71.3537 66.9943C71.1916 67.644 70.8939 68.1853 70.5151 68.6182C70.0275 69.1595 69.4057 69.5388 68.594 69.7555C67.7824 69.9722 66.3205 70.0795 64.1827 70.0795H63.2079C61.3941 70.0795 60.1227 69.998 59.3647 69.8092C58.6067 69.6203 57.9849 69.2947 57.4704 68.8349C56.9828 68.402 56.6319 67.8328 56.3878 67.1027C56.1443 66.3994 56.0354 65.4788 56.0354 64.3683V63.3941L56.0359 63.392Z" fill="white"/>
<path fill-rule="evenodd" clip-rule="evenodd" d="M82.9618 69.806V50.129H85.1548V69.806H82.9618Z" fill="white"/>
<path fill-rule="evenodd" clip-rule="evenodd" d="M97.0055 69.806V50.129H100.361L111.025 67.695V50.129H113.19V69.806H109.835L99.1701 52.2131V69.806H97.0055Z" fill="white"/>
<path fill-rule="evenodd" clip-rule="evenodd" d="M124.311 56.625C124.311 54.1079 124.825 52.3757 125.881 51.3741C126.91 50.372 128.75 49.8859 131.402 49.8859H133.892C136.328 49.8859 138.115 50.292 139.252 51.1305C140.416 51.9422 140.984 53.2415 140.984 54.9748V55.8133H138.737V55.5698C138.737 54.2168 138.385 53.2694 137.708 52.7281C137.032 52.2137 135.706 51.9433 133.757 51.9433H132.024C130.698 51.9433 129.724 52.0248 129.128 52.16C128.533 52.322 128.045 52.5661 127.613 52.918C127.234 53.2421 126.963 53.676 126.828 54.2173C126.666 54.7586 126.585 55.7607 126.585 57.1674V62.7697C126.585 64.1774 126.666 65.1516 126.828 65.7197C126.963 66.261 127.234 66.694 127.613 67.019C128.046 67.3715 128.534 67.614 129.101 67.7771C129.669 67.9123 130.645 67.9938 132.025 67.9938H133.757C135.03 67.9938 135.895 67.9123 136.436 67.8049C136.951 67.6698 137.384 67.4257 137.762 67.1285C138.115 66.8312 138.385 66.4251 138.521 65.8838C138.656 65.3694 138.737 64.4762 138.737 63.2316V62.0138H133.27V60.0111H140.984V63.3131C140.984 65.8302 140.47 67.5893 139.414 68.564C138.385 69.5651 136.545 70.0522 133.893 70.0522H131.403C128.75 70.0522 126.91 69.5646 125.881 68.564C124.826 67.5898 124.311 65.8297 124.311 63.3131V56.6277L124.31 56.625H124.311Z" fill="white"/>
<path fill-rule="evenodd" clip-rule="evenodd" d="M154.756 62.8228H163.282L159.357 52.2121H158.654L154.757 62.8228H154.756ZM149.938 69.806L157.219 50.129H160.792L168.1 69.806H165.854L163.987 64.7718H154.026L152.185 69.806H149.938Z" fill="white"/>
<path fill-rule="evenodd" clip-rule="evenodd" d="M189.667 57.5987V54.7023C189.667 53.755 189.451 53.0785 188.991 52.7265C188.558 52.3741 187.583 52.2121 186.095 52.2121H180.005V60.0885H186.095C187.556 60.0885 188.531 59.8986 188.991 59.5472C189.451 59.1947 189.667 58.5182 189.667 57.5982V57.5987ZM177.839 69.806V50.129H186.121C188.341 50.129 189.856 50.453 190.696 51.1032C191.534 51.7528 191.94 52.9438 191.94 54.6219V57.5987C191.94 59.331 191.534 60.5219 190.696 61.1716C189.884 61.8481 188.368 62.1737 186.121 62.1737H180.004V69.8065H177.839V69.8071L177.839 69.806Z" fill="white"/>
<path fill-rule="evenodd" clip-rule="evenodd" d="M210.963 51.9427H209.745C208.365 51.9427 207.39 52.0243 206.822 52.1595C206.254 52.3215 205.739 52.5656 205.334 52.9175C204.955 53.2415 204.684 53.7023 204.522 54.2705C204.36 54.8386 204.279 55.8139 204.279 57.1937V62.7692C204.279 64.15 204.36 65.1243 204.522 65.6655C204.684 66.2337 204.955 66.6676 205.334 67.0185C205.74 67.371 206.254 67.6135 206.822 67.7765C207.39 67.9117 208.365 67.9933 209.745 67.9933H210.963C212.344 67.9933 213.318 67.9117 213.913 67.7765C214.481 67.6145 214.996 67.3704 215.401 67.0185C215.78 66.6929 216.051 66.2605 216.213 65.6924C216.348 65.1511 216.429 64.1763 216.429 62.7686V57.1663C216.429 55.7865 216.348 54.8112 216.186 54.2431C216.024 53.675 215.753 53.2142 215.374 52.8901C214.968 52.5377 214.481 52.2952 213.913 52.16C213.344 52.0248 212.342 51.9433 210.962 51.9433L210.963 51.9427ZM202.031 56.625C202.031 54.1079 202.546 52.3757 203.602 51.3741C204.631 50.372 206.471 49.8859 209.123 49.8859H211.613C214.292 49.8859 216.134 50.3736 217.162 51.3473C218.191 52.3215 218.705 54.0816 218.705 56.6255V63.311C218.705 65.8281 218.191 67.5872 217.135 68.5619C216.106 69.563 214.266 70.0501 211.614 70.0501H209.123C206.471 70.0501 204.631 69.5624 203.602 68.5619C202.546 67.5877 202.032 65.8276 202.032 63.311V56.6255L202.031 56.625Z" fill="white"/>
<path fill-rule="evenodd" clip-rule="evenodd" d="M238.36 52.2131H232.08V60.0895H238.36C240.01 60.0895 241.066 59.8728 241.58 59.4667C242.095 59.0606 242.338 58.3573 242.338 57.302V55.0017C242.338 53.9459 242.095 53.2158 241.607 52.8086C241.119 52.4025 240.037 52.2137 238.36 52.2137V52.2131ZM229.915 69.806V50.129H238.793C241.013 50.129 242.528 50.453 243.367 51.1032C244.206 51.7528 244.612 52.9438 244.612 54.6219V57.5987C244.612 58.6277 244.395 59.4393 243.989 60.0075C243.556 60.6024 242.933 60.9817 242.068 61.1169C243.015 61.3336 243.665 61.7397 244.044 62.3347C244.423 62.9028 244.612 63.8228 244.612 65.069V69.806H242.338V65.746C242.338 64.3383 242.121 63.3909 241.662 62.8765C241.229 62.3888 240.362 62.1453 239.064 62.1453H232.081V69.805H229.916L229.915 69.8071V69.806Z" fill="white"/>
<path fill-rule="evenodd" clip-rule="evenodd" d="M255.93 69.806V50.129H269.735V52.2131H258.097V58.655H269.411V60.6576H258.097V67.7481H269.735V69.8055H255.93V69.806Z" fill="white"/>
<path fill-rule="evenodd" clip-rule="evenodd" d="M0.000572205 58.8544H49.2563V61.1069H0.000572205V58.8544Z" fill="white"/>
<path fill-rule="evenodd" clip-rule="evenodd" d="M276.517 58.8544H325.772V61.1069H276.517V58.8544Z" fill="white"/>
<path fill-rule="evenodd" clip-rule="evenodd" d="M333.185 4.94425V0.835877H331.722V0H335.644V0.835877H334.187V4.94425H333.186H333.185ZM336.278 4.94425V0.00157812H337.776L338.667 3.37086L339.536 0.00157812H341.041V4.94425H340.115V1.04998L339.135 4.94425H338.175L337.208 1.04998L337.202 4.94425H336.277H336.278H336.278Z" fill="white"/>
</g>
<defs>
<clipPath id="clip0_5_2">
<rect width="341.041" height="70.0785" fill="white"/>
</clipPath>
</defs>
</svg>
