<?xml version="1.0" encoding="UTF-8"?>
<!DOCTYPE svg PUBLIC "-//W3C//DTD SVG 1.0//EN" "http://www.w3.org/TR/2001/REC-SVG-20010904/DTD/svg10.dtd">
<!-- Creator: CorelDRAW 2019 (64-Bit) -->
<svg xmlns="http://www.w3.org/2000/svg" xml:space="preserve" width="29.6273mm" height="29.6275mm" version="1.0" style="shape-rendering:geometricPrecision; text-rendering:geometricPrecision; image-rendering:optimizeQuality; fill-rule:evenodd; clip-rule:evenodd"
viewBox="0 0 635.88 635.88"
 xmlns:xlink="http://www.w3.org/1999/xlink">
 <defs>
  <style type="text/css">
   <![CDATA[
    .fil0 {fill:#AD2726}
   ]]>
  </style>
 </defs>
 <g id="Layer_x0020_1">
  <metadata id="CorelCorpID_0Corel-Layer"/>
  <path class="fil0" d="M190.6 562.8l0 59.8 -141.74 0c0.4,-0.35 1.06,-1.35 1.27,-0.95l68 -29.45c14.9,-6.39 59.91,-26.48 72.47,-29.4zm-170.53 55.37l0 -168.32 170.53 0 0 97.45c-12.17,2.83 -30.88,12.72 -42.37,17.42l-128.16 53.45zm186.03 -6.64l0 -57.58c18.79,-4.38 81.03,-34.85 93.02,-37.65l-93.02 95.23zm0 -70.87c0,-27.35 0.15,-54.71 -0.11,-82.06 -0.2,-21.35 7.07,-21.25 33.89,-48.06l81.39 -82.5 0 163.88 -115.16 48.72zm-157.24 -104.09c7.3,-6.34 140.34,-61.01 154.69,-66.78l95.57 -39.53c-6.45,9.64 -73.83,74.68 -88.08,89.1 -20.65,20.89 1.54,17.2 -71.38,17.2 -30.27,0 -60.53,0 -90.8,0zm-44.29 6.64l0 192.68 192.67 0c7.52,0 96.38,-92.4 105.97,-104.42 5.62,-7.05 33.55,-30.38 33.55,-37.32l0 -179.39c0,-7.19 -9.87,-10.91 -15.79,-9.39 -4.93,1.27 -16.1,7.11 -21.86,9.39 -67.89,26.79 -143.93,62.32 -211.98,89.22l-74.85 31.46c-5.02,2.4 -7.72,1.22 -7.72,7.78z"/>
  <path class="fil0" d="M445.28 73.08l0 -59.8 141.74 0c-0.4,0.35 -1.06,1.35 -1.27,0.95l-68 29.45c-14.9,6.39 -59.91,26.48 -72.47,29.4zm170.53 -55.37l0 168.31 -170.53 0 0 -97.45c12.17,-2.83 30.88,-12.72 42.37,-17.42l128.16 -53.45zm-186.03 6.64l0 57.58c-18.79,4.38 -81.03,34.86 -93.02,37.65l93.02 -95.23zm0 70.87c0,27.35 -0.15,54.71 0.11,82.06 0.2,21.35 -7.07,21.24 -33.89,48.05l-81.39 82.5 0 -163.88 115.16 -48.72zm157.24 104.09c-7.3,6.34 -140.34,61.01 -154.69,66.78l-95.57 39.53c6.45,-9.63 73.83,-74.68 88.08,-89.1 20.65,-20.9 -1.54,-17.21 71.38,-17.21 30.27,0 60.54,0 90.8,0zm44.29 -6.64l0 -192.68 -192.67 0c-7.52,0 -96.38,92.4 -105.97,104.42 -5.62,7.05 -33.55,30.38 -33.55,37.32l0 179.39c0,7.19 9.87,10.91 15.79,9.39 4.93,-1.27 16.1,-7.11 21.86,-9.39 67.89,-26.8 143.93,-62.32 211.98,-89.22l74.85 -31.45c5.02,-2.4 7.72,-1.23 7.72,-7.78z"/>
  <path class="fil0" d="M562.8 445.28l59.79 0 0 141.74c-0.35,-0.4 -1.35,-1.06 -0.95,-1.26l-29.44 -68c-6.39,-14.9 -26.48,-59.91 -29.4,-72.47zm55.37 170.53l-168.31 0 0 -170.53 97.44 0c2.84,12.17 12.72,30.88 17.42,42.37l53.45 128.16zm-6.64 -186.03l-57.58 0c-4.38,-18.79 -34.86,-81.03 -37.65,-93.02l95.23 93.02zm-70.87 0c-27.35,0 -54.71,-0.15 -82.05,0.11 -21.35,0.2 -21.24,-7.07 -48.06,-33.89l-82.5 -81.39 163.88 0 48.72 115.16zm-104.09 157.24c-6.34,-7.3 -61.01,-140.34 -66.78,-154.69l-39.53 -95.57c9.64,6.45 74.68,73.83 89.1,88.07 20.89,20.65 17.21,-1.54 17.21,71.38 0,30.27 0,60.54 0,90.8zm6.64 44.29l192.67 0 0 -192.68c0,-7.52 -92.39,-96.38 -104.42,-105.97 -7.05,-5.62 -30.38,-33.55 -37.32,-33.55l-179.39 0c-7.19,0 -10.91,9.87 -9.39,15.79 1.27,4.93 7.11,16.1 9.39,21.86 26.79,67.89 62.32,143.92 89.22,211.98l31.46 74.85c2.4,5.03 1.23,7.73 7.78,7.73z"/>
  <path class="fil0" d="M73.08 190.6l-59.79 0 0 -141.74c0.35,0.39 1.35,1.06 0.95,1.26l29.44 68c6.39,14.9 26.48,59.91 29.4,72.47zm-55.37 -170.53l168.31 0 0 170.53 -97.44 0c-2.84,-12.17 -12.72,-30.88 -17.42,-42.37l-53.45 -128.16zm6.64 186.03l57.58 0c4.38,18.78 34.86,81.03 37.65,93.01l-95.23 -93.01zm70.87 0c27.35,0 54.71,0.15 82.05,-0.11 21.35,-0.2 21.24,7.07 48.06,33.89l82.5 81.39 -163.88 0 -48.72 -115.16zm104.09 -157.24c6.34,7.3 61.01,140.34 66.78,154.69l39.53 95.57c-9.64,-6.45 -74.68,-73.83 -89.1,-88.07 -20.89,-20.65 -17.21,1.54 -17.21,-71.38 0,-30.27 0,-60.53 0,-90.8zm-6.64 -44.29l-192.67 0 0 192.67c0,7.52 92.39,96.38 104.42,105.98 7.05,5.62 30.38,33.55 37.32,33.55l179.39 0c7.19,0 10.91,-9.87 9.39,-15.79 -1.27,-4.93 -7.11,-16.1 -9.39,-21.86 -26.79,-67.88 -62.32,-143.92 -89.22,-211.98l-31.46 -74.85c-2.4,-5.02 -1.23,-7.72 -7.78,-7.72z"/>
 </g>
</svg>
