<?xml version="1.0" encoding="UTF-8"?>
<svg id="Layer_2" data-name="Layer 2" xmlns="http://www.w3.org/2000/svg" viewBox="0 0 770.13 214.51">
  <defs>
    <style>
      .cls-1 {
        fill: #c9f31d;
        fill-rule: evenodd;
      }

      .cls-2, .cls-3 {
        font-size: 110.75px;
      }

      .cls-2, .cls-3, .cls-4 {
        fill: #fff;
        font-family: KozGoPr6N-Regular-90ms-RKSJ-H, 'Kozuka Gothic Pr6N';
      }

      .cls-5 {
        fill: #d6f83b;
      }

      .cls-3 {
        letter-spacing: .2em;
      }

      .cls-4 {
        font-size: 77.35px;
        letter-spacing: .35em;
      }
    </style>
  </defs>
  <g id="Layer_1-2" data-name="Layer 1">
    <g>
      <text class="cls-4" transform="translate(231.03 188.29)"><tspan x="0" y="0">新加坡</tspan></text>
      <rect class="cls-5" x="646.2" y="163.37" width="121.67" height="6.43"/>
      <rect class="cls-5" x="5.59" y="163.37" width="110.39" height="6.43"/>
      <text class="cls-3" transform="translate(0 98)"><tspan x="0" y="0">普里斯曼</tspan></text>
      <text class="cls-2" transform="translate(659.38 98)"><tspan x="0" y="0">号</tspan></text>
      <g>
        <path class="cls-5" d="M628.38,8.5s-3.21,16.07-7.19,17.96h-51.43s-7.56,1.13-7.19,10.78c.38,9.64.19,14.18.19,14.18v33.09s.76,6.05,6.81,5.86c6.05-.19,36.31,0,36.31,0v17.78h-41.6s-24.39-.19-27.23-19.86c.19-2.65,0-58.81,0-58.81,0,0,.57-18.72,24.77-20.61,2.27,0,66.56-.38,66.56-.38Z"/>
        <path class="cls-5" d="M561.82,52.37s3.03-3.4,8.7-4.35c3.4.38,44.63,0,44.63,0,0,0,21.75,1.51,22.12,18.15s0,22.69,0,22.69c0,0-.38,18.91-28.18,19.29-27.8.38-44.06,0-44.06,0v-18.72h37.63s8.89.76,8.7-6.24c-.19-7,0-10.97,0-10.97,0,0-.38-7-7.37-6.62-7,.38-43.11,0-43.11,0v-13.99l.95.76Z"/>
      </g>
      <path class="cls-1" d="M755.15,7.03V1.19h-2.08V0h5.57v1.19h-2.07v5.84h-1.42ZM759.54,7.03V0h2.13l1.27,4.79L764.17,0h2.14v7.03h-1.32V1.49l-1.39,5.54h-1.36l-1.37-5.54v5.54h-1.32,0Z"/>
    </g>
  </g>
</svg>