<?xml version="1.0" encoding="UTF-8"?>
<svg id="Layer_2" data-name="Layer 2" xmlns="http://www.w3.org/2000/svg" viewBox="0 0 244.34 60.55">
  <defs>
    <style>
      .cls-1 {
        font-size: 20.94px;
        letter-spacing: .35em;
      }

      .cls-1, .cls-2, .cls-3 {
        fill: #fff;
        font-family: KozGoPr6N-Regular-90ms-RKSJ-H, 'Kozuka Gothic Pr6N';
      }

      .cls-4 {
        fill: #c9f31d;
        fill-rule: evenodd;
      }

      .cls-5 {
        fill: #d6f83b;
      }

      .cls-2, .cls-3 {
        font-size: 29.99px;
      }

      .cls-3 {
        letter-spacing: .2em;
      }
    </style>
  </defs>
  <g id="Layer_1-2" data-name="Layer 1">
    <g>
      <text class="cls-1" transform="translate(81.44 53.45)"><tspan x="0" y="0">新加坡</tspan></text>
      <rect class="cls-5" x="207.39" y="44.86" width="36.95" height="1.68"/>
      <rect class="cls-5" y="44.86" width="36.94" height="1.68"/>
      <text class="cls-3" transform="translate(9.49 29)"><tspan x="0" y="0">普里斯曼</tspan></text>
      <text class="cls-2" transform="translate(188.03 29)"><tspan x="0" y="0">号</tspan></text>
      <g>
        <path class="cls-5" d="M179.64,4.77s-.87,4.35-1.95,4.86h-13.93s-2.05.31-1.95,2.92.05,3.84.05,3.84v8.96s.2,1.64,1.84,1.59,9.83,0,9.83,0v4.81h-11.26s-6.61-.05-7.37-5.38c.05-.72,0-15.92,0-15.92,0,0,.15-5.07,6.71-5.58.61,0,18.02-.1,18.02-.1Z"/>
        <path class="cls-5" d="M161.62,16.65s.82-.92,2.36-1.18c.92.1,12.08,0,12.08,0,0,0,5.89.41,5.99,4.92.1,4.51,0,6.14,0,6.14,0,0-.1,5.12-7.63,5.22-7.53.1-11.93,0-11.93,0v-5.07h10.19s2.41.2,2.36-1.69,0-2.97,0-2.97c0,0-.1-1.89-2-1.79s-11.67,0-11.67,0v-3.79l.26.2Z"/>
      </g>
      <path class="cls-4" d="M215.12,3.64V.62h-1.08v-.62h2.89v.62h-1.07v3.03h-.74ZM217.4,3.64V0h1.1l.66,2.48L219.8,0h1.11v3.64h-.68V.77l-.72,2.87h-.71l-.71-2.87v2.87h-.69,0Z"/>
    </g>
  </g>
</svg>