<?xml version="1.0" encoding="UTF-8"?>
<!DOCTYPE svg PUBLIC "-//W3C//DTD SVG 1.1//EN" "http://www.w3.org/Graphics/SVG/1.1/DTD/svg11.dtd">
<!-- Creator: CorelDRAW -->
<svg xmlns="http://www.w3.org/2000/svg" xml:space="preserve" width="100%" height="100%" version="1.1" style="shape-rendering:geometricPrecision; text-rendering:geometricPrecision; image-rendering:optimizeQuality; fill-rule:evenodd; clip-rule:evenodd"
viewBox="0 0 8991.1 10629.22"
 xmlns:xlink="http://www.w3.org/1999/xlink"
 xmlns:xodm="http://www.corel.com/coreldraw/odm/2003">
 <defs>
  <style type="text/css">
   <![CDATA[
    .fil0 {fill:#C9F31D}
   ]]>
  </style>
 </defs>
 <g id="Layer_x0020_1">
  <metadata id="CorelCorpID_0Corel-Layer"/>
  <path class="fil0" d="M3699.83 6560.22c-129.22,-1058.83 1451.38,-1226.1 1561.04,-195.16 48.71,457.98 -285.11,818.55 -687.71,867.57 -451.91,55.03 -826.29,-287.01 -873.33,-672.41zm2251.1 3750l-2919.94 0c-48.42,-182.26 -26.84,-693.12 -24.12,-906.08 3.55,-276.42 76.73,-525.55 204.26,-712.19 333.08,-487.44 734.62,-556.13 1273.07,-556.16 530.72,-0.03 942.86,68.2 1271.61,557.5 134.06,199.55 199.19,427.26 203.12,710.81 3.13,225.05 24.21,706.91 -8,906.12zm-175.2 -2089.18c116.75,-336.51 387.96,-598.42 717.95,-730.76 312.1,-125.15 1009.2,-130.18 1334.69,-18.51 352.09,120.78 607.22,385.25 740.75,713.01 136.96,336.17 88.04,989.19 88.04,1389.07l-2381.86 -0.35c0,-446.75 -45.07,-747.16 -284.38,-1094.52 -67.07,-97.35 -164.15,-179.2 -215.19,-257.94zm-3087.79 1204.09l0 148.72 -2372.86 -3.47c0.05,-520.31 -72.31,-1138.63 167.82,-1551.15 354.45,-608.91 863.13,-617.71 1489.32,-617.71 618.51,0 1065.17,368.32 1217.55,819.52 -128.24,150.51 -240.76,255 -353.07,490.68 -99.23,208.25 -148.76,454.52 -148.76,713.41zm-2687.94 -892.69l0 1204.09c0,107.12 86.43,166.08 186.84,166.08l2491.22 0c0,317.65 -66.6,726.61 166.08,726.61l3280.12 0c232.68,0 166.08,-408.96 166.08,-726.61l2470.46 0c155.63,0 228.36,-72.73 228.36,-228.36 0,-452.96 11.66,-798.72 -22.28,-1244.09 -52.39,-687.59 -747.42,-1350.93 -1493.21,-1350.93 -542.8,0 -980.87,-49.51 -1435.79,287.3 -176.87,130.95 -460.55,410.31 -515.67,646.9 -235.74,-19.61 -93.6,-207.6 -1162.57,-207.6 -375.34,0 -647.83,78.05 -892.69,207.6 -94.89,-141.7 -74.03,-169.33 -225.09,-356.19 -87.88,-108.72 -185.28,-196.44 -299.53,-281.76 -466.41,-348.28 -885.6,-296.25 -1447.6,-296.25 -415.78,0 -821.84,229.18 -1033.04,440.93 -205.71,206.23 -461.69,612.27 -461.69,1012.28zm7028.14 -3573.24c463.08,-105.2 828.52,236.39 909.84,595.11 109.58,483.38 -230.58,858.21 -594.68,937.73 -990.36,216.32 -1384.97,-1289.82 -315.16,-1532.84zm-5383.26 -2.98c456.94,-94.92 835.88,229.52 913.97,600.5 98.69,468.86 -226.26,852.04 -593.13,934.85 -1009.54,227.88 -1381.87,-1314.94 -320.84,-1535.35zm1759.79 1209.56c-38.7,-28.36 -99.02,-114.18 -128.84,-161.8 -201.08,-320.95 -155.39,-269.34 -307.12,-585.57 889.28,-470.54 2138.1,-472.46 3030.98,0 -56.72,243.5 -401.93,718.46 -415.2,768.13 -63.85,-46.78 -15.04,0.22 -41.85,-61.95 -11.08,-25.7 -19.64,-56.85 -33.9,-90.67 -363.26,-861.32 -1484.38,-891.37 -1942.52,-204.83 -144.96,217.22 -90.67,188.97 -161.55,336.69zm-2262.86 -2262.86l0 -62.28 1162.57 0 82.83 726.82c13.76,82.22 39.86,164.93 41.73,248.91 -354.99,-237.72 -753.62,-269.31 -1141.81,-83.04 -2,-89.84 -145.32,-478.19 -145.32,-830.41zm4982.45 1204.09c-197.17,-94.61 -454.01,-183.88 -666.72,-246.73 -204.26,-60.35 -552.45,-126.95 -807.26,-126.95l0 -892.69 1681.58 0c0,205.62 -35.01,441.72 -68.06,658.54l-139.54 607.83zm1557.01 -373.68c-103.28,-24.06 -304.98,-150.18 -587.21,-110.7 -265.13,37.09 -378.1,75.54 -554.6,193.74 61.22,-262.79 124.56,-659.13 124.56,-975.73l1183.33 0c-36.94,443.89 -75.92,505.69 -166.08,892.69zm-5044.73 -892.69l1681.58 0 0 892.69c-417.26,0 -1101.02,176.34 -1473.98,373.68l-133.57 -593.03c-19.28,-107.07 -36.33,-236.55 -47.87,-325.82 -15.03,-116.25 11.66,-262.9 -26.16,-347.52zm2013.74 -1204.1c317.04,-7.06 827,-119.83 1133.14,-237.03 111.49,-42.69 235.69,-112.15 340.84,-136.65l136.58 590.03c50.05,276.36 34.86,269.75 51.48,488.28 6.11,80.26 19.54,70.54 19.54,167.3l-1681.58 0 0 -871.93zm-1806.14 -373.68c99.05,23.08 214.51,94.71 324,132.73 116.39,40.42 238.17,83.8 344.22,112.5 188.08,50.9 607.95,124.05 805.76,128.45l0 871.93 -1681.58 0c25.98,-111.51 35.51,-557.12 133.69,-945.84 24.87,-98.49 65.52,-198.82 73.91,-299.77zm-581.28 1245.61l-1121.05 0c0,-533.1 208.29,-1124.94 455.49,-1537.48 62.72,-104.67 201.8,-332.9 291.87,-393.21l308.55 272.74c55.84,44.6 107.76,82.04 165.63,125.01 64.26,47.72 126.06,78.33 190.15,121.25 -2.66,32 -131.23,475.74 -166.5,684.66 -23.34,138.18 -64.12,412.41 -60.92,561.89 1.89,88.03 20.82,165.14 -63.22,165.14zm4152.04 -1411.69l522.1 -391.35c63.17,-50.59 96.96,-104.2 162.99,-148.41 118.14,223.27 270.53,307.84 495.52,853.89 246.92,599.31 174.11,763.89 251.84,1097.56l-1183.33 0 -80.95 -749.45c-23.92,-120.24 -43,-218.98 -73.56,-341.64 -20.87,-83.79 -65.98,-256.52 -94.61,-320.6zm-1764.62 207.6l0 -1909.93c255.24,68.15 615.22,445.6 804.42,648.79 175.86,188.87 496.82,701.44 544.99,908.22 -70.33,16.38 -219.28,92.57 -290.94,124.26 -240.19,106.18 -793.74,222.76 -1058.47,228.66zm-332.16 -1909.93l0 1909.93c-926.27,-77.08 -1112.29,-297.68 -1349.41,-352.92 43.58,-187.09 384.54,-736.69 544.67,-908.54 118.88,-127.56 230.99,-252.15 365.51,-361.1 83.66,-67.75 340.78,-261.09 439.23,-287.37zm996.49 41.51c188.2,4.2 720.98,254.14 863.47,340.62 128.79,78.16 242.91,156.82 358.63,243.41 87.02,65.12 255.9,200.91 314.15,287.9 -69.42,103.68 -434.83,423.16 -560.52,456.73 -306.85,-579.9 -414.45,-840.78 -975.73,-1328.66zm-2636.55 1349.42c-167.8,-112.37 -471.67,-313.79 -581.29,-477.49l159.88 -130.77c61.81,-52.37 103.38,-91.25 167.47,-143.93 271.98,-223.51 902.07,-569.97 1229.67,-597.23 -25.59,38.22 -237.34,205.58 -361.78,364.83 -29.77,38.11 -38.6,43.03 -67.77,77.55 -169.24,200.22 -340.1,471.52 -456.5,706.07 -36.24,73 -55.21,135.82 -89.68,200.97zm-1889.18 1909.94c0,659.45 207.6,1155.39 207.6,1224.84 0,50.4 -71.37,99.6 -104.34,144.79 -544.69,746.58 34.73,1765.15 830.95,1765.15 324.41,0 559.79,-47.46 804.75,-274.79 162.46,-150.76 279.16,-327.83 337.07,-576.37l76.57 110.27c176.9,302.39 435.14,531.54 475.72,666.09 68.51,227.21 197.25,446.09 393.87,581.85 603.52,416.74 1363.63,235.73 1676.97,-416.65 41.89,-87.2 53.1,-190.84 111.82,-261.87l340.79 -427.33c53.55,-71.69 101,-186.29 162.84,-231.6 20.51,246.39 270.59,543.61 475.95,665.86 1032.01,614.39 2097.07,-535.64 1571,-1467.19 -178.83,-316.67 -228.83,-169.66 -150.11,-394.42 368.55,-1052.32 136.29,-2303.77 -459.95,-3189.09 -630.82,-936.64 -1789.48,-1614.86 -2931.62,-1614.86 -667.35,0 -1172.34,85.19 -1702.41,352.85 -212.54,107.31 -387.88,197.59 -575.51,337.93 -227.62,170.26 -277.42,214.19 -488.37,425.08 -556.39,556.22 -1053.59,1473.42 -1053.59,2579.46z"/>
 </g>
</svg>
