<?xml version="1.0" encoding="UTF-8"?>
<!DOCTYPE svg PUBLIC "-//W3C//DTD SVG 1.1//EN" "http://www.w3.org/Graphics/SVG/1.1/DTD/svg11.dtd">
<!-- Creator: CorelDRAW -->
<svg xmlns="http://www.w3.org/2000/svg" xml:space="preserve" width="100%" height="100%" version="1.1" style="shape-rendering:geometricPrecision; text-rendering:geometricPrecision; image-rendering:optimizeQuality; fill-rule:evenodd; clip-rule:evenodd"
viewBox="0 0 9189.94 9189.94"
 xmlns:xlink="http://www.w3.org/1999/xlink"
 xmlns:xodm="http://www.corel.com/coreldraw/odm/2003">
 <defs>
  <style type="text/css">
   <![CDATA[
    .fil0 {fill:#C9F31D}
   ]]>
  </style>
 </defs>
 <g id="Layer_x0020_1">
  <metadata id="CorelCorpID_0Corel-Layer"/>
  <path class="fil0" d="M735.91 6318.09c232.78,-123.18 467.49,-235.95 700.02,-358.99l1112.84 2135.95 -700.01 358.98c-53.83,-80.39 -90.39,-162.8 -137.61,-257.27 -283.48,-567.12 -615.77,-1160.23 -903.33,-1735.2l-71.91 -143.47zm2602.62 -5959.11l341.03 969.25c76.51,-6.36 408.82,-153.46 520.53,-179.49l-171.91 -474.25c-35.52,-91.86 -163.04,-421.97 -169.12,-495 -92.01,7.66 -400.82,151.6 -520.53,179.49zm2261.59 789.76l502.57 179.49c37.98,-71.76 58.61,-155.21 89.75,-233.34l269.23 -735.91c-178.45,-41.57 -337.54,-136.86 -520.52,-179.49l-171.91 474.25c-33.14,85.72 -55.75,151.99 -86.09,237 -28.92,81.07 -75.89,172.18 -83.03,258zm-987.2 -1094.9l0 933.36c0,41.36 12.49,53.85 53.85,53.85l448.72 0c41.36,0 53.85,-12.49 53.85,-53.85l0 -987.2 -502.57 0c-41.36,0 -53.85,12.49 -53.85,53.84zm1364.13 7377.09l-3123.14 0c-57.36,0 -84.69,-96.87 -107.72,-143.57l-646.15 -1238.51c59.46,-39.82 57.34,-59.45 103.37,-112.03 34.69,-39.64 69.35,-69.68 107.53,-107.85 79.15,-79.12 145.69,-144.97 224.21,-224.52 361.18,-365.94 1266.11,-390.83 1706.87,-136.01 154.36,89.23 148.89,125.1 209.36,239.38 329.06,0 658.13,0.03 987.2,0 172.23,-0.02 334.73,-14.09 439.62,62.95 90.43,66.41 201.66,316.03 -128.47,427.68 -80.4,27.2 -1289.77,13.74 -1495.95,11.79 -245.68,-2.33 -197.28,-83.86 -197.28,538.62l1759.01 0c234.3,0 524.31,-223.01 628.48,-448.46 26.36,-57.04 32.08,-142.98 78.86,-190.38l825.62 -520.57c277.25,-182.15 107.03,-41.32 302.22,-236.25 168.49,-168.27 392.62,-356.2 713.59,-363.35 -89.59,169.31 -346.12,547.44 -460.95,741.64 -92.48,156.41 -292.41,516.16 -425.96,615.09l-1500.32 1084.35zm-1364.13 -2369.28c-164.91,-110.43 -226.05,-147.53 -432.85,-213.32 -307.25,-97.74 -486.85,-91.82 -805.64,-91.82 -129.53,0 -423.52,33.87 -502.58,71.8l0 -1148.75 1507.73 0c52.91,0 56.23,-36.88 78.5,-83.04l189.94 -348.53c41.68,-71.72 218.14,-397.21 234.13,-465.88 59.42,43.54 87.5,147.58 126.45,214.59 42.97,73.95 74.15,141.62 119.09,221.94 45.5,81.28 223.56,394.26 239.09,460.92l1543.62 0 0 1507.73c0,50.86 -176.05,144.15 -245.56,185.21l-274.96 173.77c-48.26,-180.72 -391.72,-376.93 -646.17,-376.93l-574.37 0 0 -1076.94 -556.42 0 0 969.25zm753.86 -2584.67l1759.02 0c64.56,96.43 118.95,221.08 178.69,323.88l180.29 340.23 -1776.96 0c-122.9,-232.25 -236.72,-430.66 -341.04,-664.11zm-1274.38 664.11l-1776.97 0c18.37,-78.84 321.06,-589.31 341.04,-664.11l1776.96 0 -341.03 664.11zm-2692.37 538.47l933.35 0 0 1346.19c0,39.56 -169.04,178.01 -246.79,255.77 -73.68,73.68 -177.57,194.43 -255.78,246.8 -55.15,-104.23 -106.73,-201.54 -161.55,-305.13 -73.12,17.03 -1266.96,660.94 -1453.86,753.87 -71.28,35.45 -145.24,70.56 -215.4,107.69 25.21,108.21 137.79,274.61 191.49,382.88l1405.98 2722.31c82.68,-19.26 1116.9,-576.41 1256.44,-646.17 105.3,-52.64 353.93,-197.48 430.78,-215.38 -23.1,-99.15 -131.64,-212.66 -161.55,-341.04l2908.3 0.55c178.42,1.91 179.92,-35.65 397.12,-195.2 188.72,-138.63 1498.49,-1076.24 1555.62,-1154.71l757.88 -1216.51c54.79,-91.49 428.26,-652.57 447.88,-736.77 -210.54,-49.05 -697.09,-424.05 -1364.13,-125.63 -65.48,29.29 -122.77,60.77 -187.47,99.71 -70.17,42.23 -109.77,74.32 -171.52,115.67l0 -1094.9 915.41 0 -933.35 -1759 -5115.5 0c-12.01,44.98 -82.22,167.09 -107.46,215.62 -39.26,75.46 -76.36,136.02 -119.63,221.4l-706.26 1321.98z"/>
 </g>
</svg>
