<?xml version="1.0" encoding="UTF-8"?>
<!DOCTYPE svg PUBLIC "-//W3C//DTD SVG 1.1//EN" "http://www.w3.org/Graphics/SVG/1.1/DTD/svg11.dtd">
<!-- Creator: CorelDRAW -->
<svg xmlns="http://www.w3.org/2000/svg" xml:space="preserve" width="100%" height="100%" version="1.1" style="shape-rendering:geometricPrecision; text-rendering:geometricPrecision; image-rendering:optimizeQuality; fill-rule:evenodd; clip-rule:evenodd"
viewBox="0 0 8464.44 7686.72"
 xmlns:xlink="http://www.w3.org/1999/xlink"
 xmlns:xodm="http://www.corel.com/coreldraw/odm/2003">
 <defs>
  <style type="text/css">
   <![CDATA[
    .fil0 {fill:#C9F31D}
   ]]>
  </style>
 </defs>
 <g id="Layer_x0020_1">
  <metadata id="CorelCorpID_0Corel-Layer"/>
  <path class="fil0" d="M4418.62 2096.63c75.47,-697.24 1222.1,-694.09 1292.76,0 -325.06,312.58 -970.42,317.29 -1292.76,0zm1973.03 -94.47c-72.5,313.16 363.83,428.85 650.33,1293.78 292.22,882.2 -28.24,1793.82 338.32,1490 240.85,-199.64 -21.3,-1433.95 -123.26,-1704.26 -148.7,-394.27 -304.61,-631.04 -546.21,-934.83 -74.21,-93.3 -138.54,-211.73 -319.18,-144.69zm-4035.14 4866.13c119.54,119.87 518.96,312.24 755.01,398.19 1143.59,416.34 2725.75,51.04 2595.83,-336.75 -180.34,-124.07 -374.06,87.43 -859.44,193.67 -1784.2,390.56 -2459.83,-945.1 -2491.4,-255.11zm1077.9 -5695.19c-230.32,-120.39 -726.39,183.55 -920.06,302.14 -1058.99,648.51 -1688.28,2160.8 -1457.93,2465.77 377.53,499.82 2,-1625.39 2049.12,-2458.85 189.86,-77.3 383.68,-61.58 328.87,-309.06zm259.49 3418.03c-253.78,-747.54 847.87,-1070.72 1072.02,-377.69 237.5,734.25 -846.16,1042.99 -1072.02,377.69zm390.89 -1024.39c-1132.5,219.89 -788.58,1884.91 334.09,1652.22 401.23,-83.16 739.5,-502.53 632.52,-1014.92 -81.17,-388.79 -490.03,-729.82 -966.61,-637.3zm1151.16 1760.32c-289.03,237.41 -69.26,-96.3 -574.45,127.52 -403.33,178.68 -139.98,77.02 -356.35,300.64l-155.92 -0.04c-189.86,-197.87 22.34,-147.84 -328.11,-289.95 -432.87,-175.52 -186.7,-43.9 -523.58,-61 -279.36,-335.57 107.99,1.13 -140.38,-601.19 -196.32,-476.09 -242.1,-117.16 -291.82,-375.1 -50.96,-264.33 499.61,-182.38 339.88,-928.15l137.1 -134.77c309.11,103.9 225.49,59.43 506.92,-47.61 422.31,-160.64 58.27,-287.38 455.91,-282.83 178.52,178.57 -9.31,161.53 328.83,293.04 302.77,117.75 155.49,139.36 477.71,37.68l148.91 146.13c-111.31,273.94 -65.74,226.62 36,478.02 188.52,465.87 297.35,120.63 295.73,406.64 -1.3,231.02 -141.23,14.93 -283.87,378.79 -36.92,94.19 -94.12,167.66 -105.24,250.88 -23.92,178.76 45.52,106.87 32.73,301.3zm-2348.16 -1866.25c45.06,227.09 125.59,181.35 25.97,399.65 -105.85,232 -148.91,133.1 -313.21,266.22l-0.61 535.11c148.9,118.81 211.92,51.93 305.11,240.89 110.36,223.76 26.96,202.94 -17.46,429.01l390.47 414.49c218.47,-53.39 270.84,-133.21 470.08,-15.89 320.05,188.45 -156.62,335.13 746.43,292.47 108.8,-139.15 62,-215.86 238.32,-304.97 214.01,-108.14 212.54,-25.81 429.74,14.61 120.52,-68.91 329.99,-280.24 404.54,-400.71 -46.66,-245.57 -134.33,-162.47 -29.2,-401.2 111.56,-253.29 140.55,-106.32 314.33,-267.74l8.34 -534.53c-172.12,-139.85 -216.56,-31.79 -321.09,-267.91 -115.76,-261.46 25.91,-163.93 13.65,-438.47l-377.3 -380.71c-255.92,60.11 -175.46,149.66 -412.44,40.57 -235.66,-108.49 -132.06,-145.25 -265.92,-313.25l-539.65 -1.04c-51.75,68.41 -162.27,437.4 -505.17,335.51 -193.14,-57.39 -206.76,-42.58 -325.12,76.74 -87.5,88.21 -173.72,162.28 -239.81,281.15zm-2233.86 2884.27c204.95,-699.86 1101.38,-694.9 1308.49,0 -318.24,345.15 -976.58,348.17 -1308.49,0zm514.96 -1326.95c529.79,-53.31 497.13,431.72 220.1,515.77 -154.26,46.79 -287.99,-45.86 -331.45,-153.63 -69.17,-171.51 41.5,-254.44 111.35,-362.14zm-748.06 1080.14c-391.99,-772.31 107.8,-1549.02 883.24,-1551.82 730.83,-2.64 1351.17,838.12 886.11,1553.18 -197.33,-195.77 -148.85,-302.2 -461.05,-440.53 74.29,-176.47 189.8,-392.71 68.92,-625.98 -225.83,-435.83 -802.11,-374.18 -985.37,3.17 -114.08,234.9 8.01,437.74 61.72,607.21 -259.13,181.5 -265.12,255.62 -453.57,454.77zm-389.76 -259.89c313.1,1608.98 2858.59,1236.3 2559.35,-502.36 -282.73,-1642.79 -2903.38,-1265.46 -2559.35,502.36zm7769.01 1325.2c-347.17,407.66 -907.37,269.62 -1308.03,34.95 111.3,-696.73 1123.87,-756.87 1308.03,-34.95zm-787.02 -1279.67c317.82,-225.86 546.45,280.85 273.24,443.8 -135.39,80.74 -297.88,21.69 -362.22,-68.96 -164,-231.09 48.23,-345.88 88.98,-374.84zm-749.25 1035.4c-472.21,-731.26 170.9,-1578.94 925.58,-1551.33 973.76,35.64 1172.53,1174.41 825.68,1550.75 -140.28,-239.04 -211.49,-288.38 -434.44,-456.73 55.59,-164.78 177.38,-373.04 60.83,-606.48 -185.71,-371.96 -757.51,-439.68 -984.22,-2.43 -119.4,230.29 -5.16,442.69 57.89,608.91 -416.41,304.67 -279.96,290.1 -451.32,457.31zm2153.75 -223.44c423.48,-1662.48 -2151.71,-2271.38 -2539.53,-608.13 -397.54,1705 2119.37,2257.57 2539.53,608.13zm-3451.54 -5937.5c328.84,-153.35 506.67,376.78 210.04,498.17 -351.03,143.65 -527.03,-350.34 -210.04,-498.17zm-777.81 1059.25c-387.01,-507.15 -25.71,-1552.85 896.02,-1537.01 892.48,15.34 1243.32,1033.81 857.93,1538.26 -73.68,-77.42 -112.22,-166.73 -204.96,-257.7l-219.6 -183.97c-3.9,-13.87 -16.36,-13.47 -23.67,-21.13 498.62,-710.94 -602.49,-1252.79 -924.09,-592.71 -131.01,268.9 -13.59,417.02 71.56,641.08 -257.03,71.83 -294.92,249.5 -453.19,413.18zm680.46 -1794.63c-1764.41,307.23 -1250.88,2869.64 435.83,2565.14 1659.34,-299.57 1233.57,-2855.81 -435.83,-2565.14z"/>
 </g>
</svg>
