<?xml version="1.0" encoding="UTF-8"?>
<!DOCTYPE svg PUBLIC "-//W3C//DTD SVG 1.1//EN" "http://www.w3.org/Graphics/SVG/1.1/DTD/svg11.dtd">
<!-- Creator: CorelDRAW -->
<svg xmlns="http://www.w3.org/2000/svg" xml:space="preserve" width="100%" height="100%" version="1.1" style="shape-rendering:geometricPrecision; text-rendering:geometricPrecision; image-rendering:optimizeQuality; fill-rule:evenodd; clip-rule:evenodd"
viewBox="0 0 8816.3 8807.9"
 xmlns:xlink="http://www.w3.org/1999/xlink"
 xmlns:xodm="http://www.corel.com/coreldraw/odm/2003">
 <defs>
  <style type="text/css">
   <![CDATA[
    .fil0 {fill:#C9F31D}
   ]]>
  </style>
 </defs>
 <g id="Layer_x0020_1">
  <metadata id="CorelCorpID_0Corel-Layer"/>
  <path class="fil0" d="M5215.13 6372.18c547.71,-0.4 439.64,-485.77 439.25,-1092.83 -0.34,-544.78 -180.1,-988.16 -649.23,-1236.18 -93.2,-49.27 -113.51,-19.87 -186.7,18.45 -261.68,137.03 -580.2,127.43 -837.08,-12.46 -81.6,-44.44 -87,-41.97 -169.51,5.57 -60.85,35.07 -101.59,62.74 -158.22,109.27 -350.4,287.93 -474.94,607.74 -475.16,1097.51 -0.13,276.72 -60.3,785.17 82.13,972.97 151.35,199.58 598.43,137.7 901.58,137.7 350.98,0 701.96,0 1052.94,0zm-986.49 -6232.5l-2.64 1500.15c6.12,148.26 120.82,266.13 270.87,189.71 126.11,-64.22 101.49,-223.07 101.41,-387.16l0 -999.4c0.04,-241.26 33.09,-264.36 -82.27,-420.41 -155.46,-51.83 -231.02,-15.03 -287.37,117.11zm-2377.34 4229.42c-46.53,-154.76 -131.97,-150.96 -312.5,-149.99 -154.62,0.82 -309.4,0.15 -464.04,0.15 -305.65,0 -623.8,-8.53 -927.92,2.31 -259.03,125.52 -117.19,330.65 -14.47,359.75 74.61,21.14 1128.1,9.19 1299.32,9.22 182.05,0.04 479.06,29.71 419.61,-221.44zm5222.81 -126.48c-156.46,80.16 -137.61,276.58 5.37,332.44 75.2,29.38 1571.49,27.38 1638.94,-4.43 136.75,-64.49 128.43,-281.74 -13.87,-335.93 -70.9,-27 -1545.22,-35.74 -1630.44,7.92zm-2838.13 4445.4c43.79,147.9 261.69,158.89 334,33.29 59.27,-102.97 32.32,-1585.29 17.34,-1635.14 -41.46,-138.02 -256.93,-172.83 -333.54,-38.46 -57.23,100.37 -31.49,1594.08 -17.8,1640.31zm-1845.58 -4610.29c99.03,54.39 190.89,209.18 469.12,209.62 402.56,0.64 675.39,-392.25 569.54,-754.04 -25.98,-88.8 -70.97,-163.82 -119.73,-220.7l-154.68 -133.37c-17.15,-14.15 -19.89,-16.44 -32.4,-28.77 -70.04,-0.34 -458.63,-168.23 -722.4,170.78 -287.25,369.19 -26,678.4 -9.45,756.48zm3459.96 -958.29c-808.81,185.43 -494.77,1325.61 249.74,1153.55 752.03,-173.8 494.08,-1324.07 -249.74,-1153.55zm-4637.6 511.08c96.16,-613.28 639.61,-1377.48 977.77,-1660.95 237.25,-198.89 454.97,-369.21 788.7,-531.36 372.44,-180.96 588.16,-207.5 1016.09,-306.78l2.31 -297.23c-11.47,-90.35 20.37,-51.74 -49.51,-70.07 -220.62,54.57 -424.65,74.32 -642.13,143.34 -969.63,307.71 -1701.03,956.95 -2168.11,1847.27 -112.22,213.9 -397.37,954.48 -359.22,1231.24l358.73 1.1 75.37 -356.56zm3617.33 -2499.51c201.73,50.65 385.44,72.42 581.42,132.77 484.6,149.22 1013.72,479.66 1331.21,810.12 363.75,378.62 638.3,802.39 809.92,1331.8 64.63,199.34 83.76,373.32 133.1,580.82l361.54 0.8c24.38,-308.71 -238.64,-996.04 -359.94,-1233.51 -357.49,-699.81 -906.66,-1260.13 -1612.6,-1618.09 -232.97,-118.14 -947.28,-396.78 -1244.42,-365.34l-0.23 360.63zm1915.21 5582.96c-15.06,65.03 -122.25,135.18 -171.4,174.34 -380.25,302.99 -653.28,493.11 -1149.26,652.24 -207.5,66.58 -381.81,85.43 -594.44,137.83l-0.39 361.68c314.55,28.59 981.58,-241.55 1233.18,-359.86 888.75,-417.93 1547.17,-1252.57 1851.02,-2182.71 75.16,-230.1 95.49,-434.33 144.63,-674.33l-372.98 -0.25c-51.67,204.83 -68.99,380.42 -133.37,581.11 -134.31,418.7 -351.61,810.71 -632.84,1133.25 -71.79,82.33 -90.08,137.44 -174.15,176.7zm-4612.08 52.8c-176.06,-91.67 -527.32,-613.46 -640.07,-834.62 -201.81,-395.88 -263.09,-644.17 -355.06,-1121.47 -101.08,32.31 -247.64,10.7 -360.99,12.44 -26.9,292.33 240.56,1007.2 359.59,1232.68 385.77,730.78 882.78,1238.41 1612.46,1618.23 248.66,129.43 925.07,387.2 1246.94,366.61l-1.68 -362.09c-454.42,-107.87 -673.43,-134.8 -1062.08,-330.92 -122.51,-61.82 -775.02,-466.17 -799.11,-580.86zm3368.48 -2433.28c100.87,213.66 232.03,313.34 257.11,717.85 19.54,315.35 -5.16,656.68 4.3,976.41 239.6,-0.55 479.57,-0.97 719.16,0.03 483.25,2.01 394.73,-232.03 394.62,-891.2 -0.01,-393.91 -206.71,-652.98 -433.24,-800.27 -171.94,-111.8 -140.56,58.98 -478.98,58.48 -325.89,-0.48 -353.2,-186 -462.97,-61.3zm-3384.19 228.06c-4.26,26.93 -81.76,190 -112.36,218.19 -41.03,203.99 -125.2,946.72 -16.69,1121.27 95.37,153.4 273.35,126.69 478.32,126.66 199.54,-0.03 406.43,5.31 604.97,-1.56 -3.73,-304.57 -14.53,-660.88 1.73,-961.46 21.95,-405.72 174.9,-533.16 256.67,-731.16l-74.77 -48.06c-95.71,26.51 -155.26,80.27 -288.97,101.1 -437.95,68.21 -376.92,-207.13 -628.22,-21.31 -89.75,66.36 -134.04,140.31 -220.68,196.33zm1486.94 -1473.52l7.2 32c-88.91,1140.28 1430.73,1236.18 1596.98,260.45 80.99,-475.34 -257.86,-855.67 -644.68,-928.72 -341.9,-64.56 -653.38,86.95 -826.7,349.98l-132.8 286.29z"/>
 </g>
</svg>
