<svg width="28" height="28" viewBox="0 0 28 28" fill="none" xmlns="http://www.w3.org/2000/svg">
<rect width="28" height="28" rx="14" fill="white"/>
<path d="M18 10C17.875 9.87502 17.7054 9.80481 17.5287 9.80481C17.3519 9.80481 17.1824 9.87502 17.0573 10L14 13.0573L10.9427 10C10.8176 9.87502 10.6481 9.80481 10.4713 9.80481C10.2946 9.80481 10.125 9.87502 10 10C9.87502 10.125 9.80481 10.2946 9.80481 10.4713C9.80481 10.6481 9.87502 10.8176 10 10.9427L13.0573 14L10 17.0573C9.87502 17.1824 9.80481 17.3519 9.80481 17.5287C9.80481 17.7054 9.87502 17.875 10 18C10.125 18.125 10.2946 18.1952 10.4713 18.1952C10.6481 18.1952 10.8176 18.125 10.9427 18L14 14.9427L17.0573 18C17.1824 18.125 17.3519 18.1952 17.5287 18.1952C17.7054 18.1952 17.875 18.125 18 18C18.125 17.875 18.1952 17.7054 18.1952 17.5287C18.1952 17.3519 18.125 17.1824 18 17.0573L14.9427 14L18 10.9427C18.125 10.8176 18.1952 10.6481 18.1952 10.4713C18.1952 10.2946 18.125 10.125 18 10V10Z" fill="black"/>
</svg>
