<svg width="28" height="28" viewBox="0 0 28 28" fill="none" xmlns="http://www.w3.org/2000/svg">
<rect width="28" height="28" rx="14" fill="white"/>
<g clip-path="url(#clip0_517_28)">
<path d="M8.5 11H19.5C19.6326 11 19.7598 10.9473 19.8536 10.8536C19.9473 10.7598 20 10.6326 20 10.5C20 10.3674 19.9473 10.2402 19.8536 10.1464C19.7598 10.0527 19.6326 10 19.5 10H8.5C8.36739 10 8.24021 10.0527 8.14645 10.1464C8.05268 10.2402 8 10.3674 8 10.5C8 10.6326 8.05268 10.7598 8.14645 10.8536C8.24021 10.9473 8.36739 11 8.5 11V11Z" fill="black"/>
<path d="M19.5 12.5H8.5C8.36739 12.5 8.24021 12.5527 8.14645 12.6464C8.05268 12.7402 8 12.8674 8 13C8 13.1326 8.05268 13.2598 8.14645 13.3536C8.24021 13.4473 8.36739 13.5 8.5 13.5H19.5C19.6326 13.5 19.7598 13.4473 19.8536 13.3536C19.9473 13.2598 20 13.1326 20 13C20 12.8674 19.9473 12.7402 19.8536 12.6464C19.7598 12.5527 19.6326 12.5 19.5 12.5Z" fill="black"/>
<path d="M19.5 15H8.5C8.36739 15 8.24021 15.0527 8.14645 15.1464C8.05268 15.2402 8 15.3674 8 15.5C8 15.6326 8.05268 15.7598 8.14645 15.8536C8.24021 15.9473 8.36739 16 8.5 16H19.5C19.6326 16 19.7598 15.9473 19.8536 15.8536C19.9473 15.7598 20 15.6326 20 15.5C20 15.3674 19.9473 15.2402 19.8536 15.1464C19.7598 15.0527 19.6326 15 19.5 15Z" fill="black"/>
<path d="M19.5 17.5H8.5C8.36739 17.5 8.24021 17.5527 8.14645 17.6464C8.05268 17.7402 8 17.8674 8 18C8 18.1326 8.05268 18.2598 8.14645 18.3536C8.24021 18.4473 8.36739 18.5 8.5 18.5H19.5C19.6326 18.5 19.7598 18.4473 19.8536 18.3536C19.9473 18.2598 20 18.1326 20 18C20 17.8674 19.9473 17.7402 19.8536 17.6464C19.7598 17.5527 19.6326 17.5 19.5 17.5Z" fill="black"/>
</g>
<defs>
<clipPath id="clip0_517_28">
<rect width="12" height="8.49999" fill="white" transform="translate(8 10)"/>
</clipPath>
</defs>
</svg>
